<svg width="22" height="24" viewBox="0 0 22 24" fill="none" xmlns="http://www.w3.org/2000/svg">
<path d="M21.554 4.31765L11.483 0.0956236C11.1717 -0.0318745 10.8287 -0.0318745 10.5175 0.0956236L0.446016 4.31765C0.315004 4.37128 0.202111 4.46724 0.122414 4.59271C0.0427164 4.71818 1.04961e-05 4.86719 0 5.01984L0 6.75C0 7.16437 0.307656 7.5 0.6875 7.5H21.3125C21.6923 7.5 22 7.16437 22 6.75V5.01984C22 4.70719 21.8221 4.42734 21.554 4.31765ZM2.75 9V16.5H2.0625C1.68266 16.5 1.375 16.8356 1.375 17.25V19.5H20.625V17.25C20.625 16.8356 20.3173 16.5 19.9375 16.5H19.25V9H16.5V16.5H12.375V9H9.625V16.5H5.5V9H2.75ZM21.3125 21H0.6875C0.307656 21 0 21.3356 0 21.75V23.25C0 23.6644 0.307656 24 0.6875 24H21.3125C21.6923 24 22 23.6644 22 23.25V21.75C22 21.3356 21.6923 21 21.3125 21Z" fill="#c5cae9"/>
</svg>
